<svg width="91" height="112" viewBox="0 0 91 112" fill="none" xmlns="http://www.w3.org/2000/svg">
<g id="Group">
<g id="Group_2">
<path id="Vector" d="M90.4544 65.894C90.4934 71.8648 89.3523 77.7844 87.097 83.312C84.8416 88.8396 81.5164 93.866 77.3128 98.1019C73.1092 102.338 68.1103 105.699 62.6038 107.993C57.0973 110.287 51.1919 111.468 45.2277 111.468C39.2634 111.468 33.3581 110.287 27.8516 107.993C22.3451 105.699 17.3461 102.338 13.1426 98.1019C8.93901 93.866 5.61383 88.8396 3.35844 83.312C1.10305 77.7844 -0.0380046 71.8648 0.000965536 65.894C-0.0380046 59.9231 1.10305 54.0035 3.35844 48.476C5.61383 42.9484 8.93901 37.922 13.1426 33.6861C17.3461 29.4502 22.3451 26.0885 27.8516 23.7945C33.3581 21.5005 39.2634 20.3195 45.2277 20.3195C51.1919 20.3195 57.0973 21.5005 62.6038 23.7945C68.1103 26.0885 73.1092 29.4502 77.3128 33.6861C81.5164 37.922 84.8416 42.9484 87.097 48.476C89.3523 54.0035 90.4934 59.9231 90.4544 65.894Z" fill="#117026"/>
<path id="Vector_2" d="M41.7327 14.2807H48.7197C49.1724 14.2807 49.6065 14.4607 49.9265 14.7811C50.2466 15.1015 50.4264 15.5361 50.4264 15.9893V21.4966C50.4264 21.9498 50.2466 22.3844 49.9265 22.7048C49.6065 23.0252 49.1724 23.2052 48.7197 23.2052H41.7327C41.2801 23.2052 40.846 23.0252 40.5259 22.7048C40.2059 22.3844 40.0261 21.9498 40.0261 21.4966V15.9893C40.0261 15.5361 40.2059 15.1015 40.5259 14.7811C40.846 14.4607 41.2801 14.2807 41.7327 14.2807Z" fill="#006F18"/>
<path id="Vector_3" d="M41.6652 8.32193H48.7873C49.9313 8.32193 51.0285 8.7769 51.8374 9.58675C52.6464 10.3966 53.1008 11.495 53.1008 12.6403C53.1008 13.7856 52.6464 14.884 51.8374 15.6938C51.0285 16.5037 49.9313 16.9587 48.7873 16.9587H41.6652C40.5211 16.9587 39.424 16.5037 38.615 15.6938C37.8061 14.884 37.3517 13.7856 37.3517 12.6403C37.3517 11.495 37.8061 10.3966 38.615 9.58675C39.424 8.7769 40.5211 8.32193 41.6652 8.32193Z" fill="#006F18"/>
<path id="Vector_4" d="M43.0457 0H48.0975C50.5012 0 52.8065 0.595517 54.5062 1.65554C56.2058 2.71555 57.1607 4.15324 57.1607 5.65234V6.2473C57.1607 7.74639 56.2058 9.18408 54.5062 10.2441C52.8065 11.3041 50.5012 11.8996 48.0975 11.8996H43.0457C40.642 11.8996 38.3368 11.3041 36.6371 10.2441C34.9374 9.18408 33.9825 7.74639 33.9825 6.2473V5.65234C33.9825 4.15324 34.9374 2.71555 36.6371 1.65554C38.3368 0.595517 40.642 0 43.0457 0Z" fill="#006F18" stroke="#1D1D1D" stroke-width="2.98672" stroke-linejoin="round"/>
<path id="Vector_5" fill-rule="evenodd" clip-rule="evenodd" d="M71.6812 24.7725L70.1451 30.8651L76.1184 35.4783L81.8831 32.105C81.8831 29.1149 74.2411 23.9184 71.6807 24.7729L71.6812 24.7725Z" fill="#006F18"/>
</g>
<path id="Vector_6" d="M86.9454 65.9395C86.9454 77.0047 82.5498 87.6166 74.7256 95.4409C66.9013 103.265 56.2894 107.661 45.2242 107.661C34.1591 107.661 23.5471 103.265 15.7229 95.4409C7.89863 87.6166 3.50301 77.0047 3.50301 65.9395C3.50301 54.8744 7.89863 44.2624 15.7229 36.4382C23.5471 28.6139 34.1591 24.2183 45.2242 24.2183C56.2894 24.2183 66.9013 28.6139 74.7256 36.4382C82.5498 44.2624 86.9454 54.8744 86.9454 65.9395Z" fill="#D3D3D3"/>
<path id="a" d="M44.8197 24.9195H45.6288C45.9864 24.9195 46.3294 25.1326 46.5823 25.5119C46.8351 25.8913 46.9772 26.4057 46.9772 26.9422V33.4148C46.9772 33.9513 46.8351 34.4657 46.5823 34.8451C46.3294 35.2244 45.9864 35.4375 45.6288 35.4375H44.8197C44.462 35.4375 44.1191 35.2244 43.8662 34.8451C43.6133 34.4657 43.4712 33.9513 43.4712 33.4148V26.9422C43.4712 26.4057 43.6133 25.8913 43.8662 25.5119C44.1191 25.1326 44.462 24.9195 44.8197 24.9195Z" fill="#4D4D4D"/>
<path id="a_2" d="M44.8197 97.1428H45.6288C45.9864 97.1428 46.3294 97.3417 46.5823 97.6957C46.8351 98.0497 46.9772 98.5299 46.9772 99.0306V105.072C46.9772 105.572 46.8351 106.053 46.5823 106.407C46.3294 106.761 45.9864 106.96 45.6288 106.96H44.8197C44.462 106.96 44.1191 106.761 43.8662 106.407C43.6133 106.053 43.4712 105.572 43.4712 105.072V99.0306C43.4712 98.5299 43.6133 98.0497 43.8662 97.6957C44.1191 97.3417 44.462 97.1428 44.8197 97.1428Z" fill="#4D4D4D"/>
<path id="a_3" d="M4.90541 67.0453V66.2362C4.90541 65.8785 5.06168 65.5356 5.33985 65.2827C5.61802 65.0298 5.99529 64.8877 6.38868 64.8877H11.1353C11.5287 64.8877 11.906 65.0298 12.1841 65.2827C12.4623 65.5356 12.6186 65.8785 12.6186 66.2362V67.0453C12.6186 67.4029 12.4623 67.7459 12.1841 67.9988C11.906 68.2516 11.5287 68.3937 11.1353 68.3937H6.38868C5.99529 68.3937 5.61802 68.2516 5.33985 67.9988C5.06168 67.7459 4.90541 67.4029 4.90541 67.0453Z" fill="#4D4D4D"/>
<path id="a_4" d="M77.8299 67.0453V66.2362C77.8299 65.8785 77.9861 65.5356 78.2643 65.2827C78.5425 65.0298 78.9197 64.8877 79.3131 64.8877H84.0598C84.4531 64.8877 84.8304 65.0298 85.1086 65.2827C85.3868 65.5356 85.543 65.8785 85.543 66.2362V67.0453C85.543 67.4029 85.3868 67.7459 85.1086 67.9988C84.8304 68.2516 84.4531 68.3937 84.0598 68.3937H79.3131C78.9197 68.3937 78.5425 68.2516 78.2643 67.9988C77.9861 67.7459 77.8299 67.4029 77.8299 67.0453Z" fill="#4D4D4D"/>
<g id="Group_3">
<path id="a_5" d="M64.0057 32.7625L64.3068 32.9365C64.4399 33.0135 64.5221 33.166 64.5354 33.3605C64.5487 33.5551 64.492 33.7757 64.3776 33.9739L62.9984 36.3655C62.8841 36.5637 62.7216 36.7233 62.5467 36.809C62.3717 36.8948 62.1987 36.8997 62.0656 36.8228L61.7645 36.6487C61.6314 36.5718 61.5491 36.4193 61.5359 36.2247C61.5226 36.0302 61.5793 35.8095 61.6936 35.6113L63.0729 33.2197C63.1872 33.0215 63.3497 32.862 63.5246 32.7762C63.6995 32.6905 63.8726 32.6855 64.0057 32.7625Z" fill="#4D4D4D"/>
<path id="a_6" d="M77.4712 46.6573L77.645 46.9588C77.7219 47.092 77.7169 47.2653 77.6313 47.4404C77.5456 47.6156 77.3863 47.7782 77.1883 47.8927L74.7994 49.2735C74.6014 49.3879 74.381 49.4447 74.1867 49.4314C73.9923 49.4181 73.84 49.3358 73.7631 49.2025L73.5893 48.9011C73.5124 48.7678 73.5174 48.5946 73.603 48.4194C73.6887 48.2443 73.848 48.0816 74.046 47.9672L76.4349 46.5864C76.6329 46.472 76.8533 46.4152 77.0476 46.4285C77.242 46.4418 77.3943 46.5241 77.4712 46.6573Z" fill="#4D4D4D"/>
<path id="a_7" d="M64.0057 98.1473L64.3068 97.9732C64.4399 97.8963 64.5221 97.7438 64.5354 97.5492C64.5487 97.3547 64.492 97.134 64.3776 96.9358L62.9984 94.5442C62.8841 94.346 62.7216 94.1865 62.5467 94.1008C62.3717 94.015 62.1987 94.01 62.0656 94.087L61.7645 94.261C61.6314 94.338 61.5491 94.4905 61.5359 94.685C61.5226 94.8796 61.5793 95.1002 61.6936 95.2984L63.0729 97.69C63.1872 97.8882 63.3497 98.0478 63.5246 98.1335C63.6995 98.2193 63.8726 98.2242 64.0057 98.1473Z" fill="#4D4D4D"/>
<path id="a_8" d="M77.4712 84.2524L77.645 83.951C77.7219 83.8177 77.7169 83.6445 77.6313 83.4693C77.5456 83.2942 77.3863 83.1315 77.1883 83.0171L74.7994 81.6363C74.6014 81.5219 74.381 81.465 74.1867 81.4783C73.9923 81.4916 73.84 81.574 73.7631 81.7072L73.5893 82.0087C73.5124 82.1419 73.5174 82.3152 73.603 82.4903C73.6887 82.6654 73.848 82.8281 74.046 82.9425L76.4349 84.3233C76.6329 84.4378 76.8533 84.4946 77.0476 84.4813C77.242 84.468 77.3943 84.3856 77.4712 84.2524Z" fill="#4D4D4D"/>
<path id="a_9" d="M26.7556 98.1473L26.4545 97.9732C26.3214 97.8963 26.2392 97.7438 26.2259 97.5492C26.2126 97.3547 26.2694 97.134 26.3837 96.9358L27.7629 94.5442C27.8772 94.346 28.0397 94.1865 28.2146 94.1008C28.3896 94.015 28.5626 94.01 28.6957 94.087L28.9968 94.261C29.1299 94.338 29.2122 94.4905 29.2255 94.685C29.2387 94.8796 29.182 95.1002 29.0677 95.2984L27.6885 97.69C27.5742 97.8882 27.4117 98.0478 27.2367 98.1335C27.0618 98.2193 26.8887 98.2242 26.7556 98.1473Z" fill="#4D4D4D"/>
<path id="a_10" d="M13.2957 84.2524L13.1219 83.951C13.045 83.8177 13.05 83.6445 13.1356 83.4693C13.2213 83.2942 13.3806 83.1315 13.5786 83.0171L15.9675 81.6363C16.1655 81.5219 16.3859 81.465 16.5803 81.4783C16.7746 81.4916 16.9269 81.574 17.0038 81.7072L17.1776 82.0087C17.2545 82.1419 17.2495 82.3152 17.1639 82.4903C17.0782 82.6654 16.9189 82.8281 16.7209 82.9425L14.332 84.3233C14.134 84.4378 13.9136 84.4946 13.7193 84.4813C13.5249 84.468 13.3726 84.3856 13.2957 84.2524Z" fill="#4D4D4D"/>
<path id="a_11" d="M26.7556 33.0034L26.4545 33.1774C26.3214 33.2544 26.2392 33.4069 26.2259 33.6014C26.2126 33.796 26.2694 34.0166 26.3837 34.2148L27.7629 36.6064C27.8772 36.8046 28.0397 36.9642 28.2146 37.0499C28.3896 37.1357 28.5626 37.1406 28.6957 37.0637L28.9968 36.8896C29.1299 36.8127 29.2122 36.6602 29.2255 36.4656C29.2387 36.2711 29.182 36.0504 29.0677 35.8522L27.6885 33.4606C27.5742 33.2624 27.4117 33.1029 27.2367 33.0172C27.0618 32.9314 26.8887 32.9264 26.7556 33.0034Z" fill="#4D4D4D"/>
<path id="a_12" d="M13.2957 46.8983L13.1219 47.1997C13.045 47.3329 13.05 47.5062 13.1356 47.6813C13.2213 47.8565 13.3806 48.0191 13.5786 48.1336L15.9675 49.5144C16.1655 49.6288 16.3859 49.6856 16.5803 49.6723C16.7746 49.659 16.9269 49.5767 17.0038 49.4434L17.1776 49.142C17.2545 49.0087 17.2495 48.8355 17.1639 48.6604C17.0782 48.4852 16.9189 48.3225 16.7209 48.2081L14.332 46.8273C14.134 46.7129 13.9136 46.6561 13.7193 46.6694C13.5249 46.6827 13.3726 46.765 13.2957 46.8983Z" fill="#4D4D4D"/>
<g id="Text">
<path id="55,5s" d="M18.6541 64.6402L16.7752 64.1578L17.702 54.9537H27.1854V57.1246H19.6951L19.1365 62.1519C19.4751 61.9573 19.9025 61.7753 20.4188 61.606C20.9435 61.4367 21.5444 61.3521 22.2215 61.3521C23.0763 61.3521 23.8423 61.5002 24.5193 61.7964C25.1964 62.0842 25.7719 62.4989 26.2459 63.0406C26.7283 63.5823 27.0965 64.2339 27.3504 64.9957C27.6043 65.7574 27.7313 66.608 27.7313 67.5474C27.7313 68.4361 27.6085 69.2528 27.3631 69.9976C27.1261 70.7424 26.7664 71.3941 26.284 71.9527C25.8016 72.5028 25.1922 72.9302 24.4559 73.2349C23.728 73.5396 22.8689 73.692 21.8787 73.692C21.1339 73.692 20.4272 73.5904 19.7586 73.3873C19.0984 73.1757 18.506 72.8583 17.9813 72.4351C17.465 72.0035 17.0418 71.4703 16.7117 70.8355C16.3901 70.1923 16.187 69.439 16.1023 68.5757H18.3367C18.4383 69.2698 18.6414 69.8537 18.9461 70.3277C19.2508 70.8017 19.6486 71.1614 20.1395 71.4068C20.6388 71.6438 21.2186 71.7623 21.8787 71.7623C22.4373 71.7623 22.9324 71.6649 23.3641 71.4703C23.7957 71.2756 24.1596 70.9963 24.4559 70.6324C24.7521 70.2685 24.9764 69.8283 25.1287 69.3121C25.2895 68.7958 25.3699 68.216 25.3699 67.5728C25.3699 66.9888 25.2895 66.4472 25.1287 65.9478C24.9679 65.4485 24.7267 65.0126 24.4051 64.6402C24.0919 64.2678 23.7068 63.98 23.2498 63.7769C22.7928 63.5653 22.268 63.4595 21.6756 63.4595C20.8885 63.4595 20.2918 63.5653 19.8855 63.7769C19.4878 63.9885 19.0773 64.2763 18.6541 64.6402ZM33.2791 64.6402L31.4002 64.1578L32.327 54.9537H41.8104V57.1246H34.3201L33.7615 62.1519C34.1001 61.9573 34.5275 61.7753 35.0438 61.606C35.5685 61.4367 36.1694 61.3521 36.8465 61.3521C37.7013 61.3521 38.4673 61.5002 39.1443 61.7964C39.8214 62.0842 40.3969 62.4989 40.8709 63.0406C41.3533 63.5823 41.7215 64.2339 41.9754 64.9957C42.2293 65.7574 42.3563 66.608 42.3563 67.5474C42.3563 68.4361 42.2335 69.2528 41.9881 69.9976C41.7511 70.7424 41.3914 71.3941 40.909 71.9527C40.4266 72.5028 39.8172 72.9302 39.0809 73.2349C38.353 73.5396 37.4939 73.692 36.5037 73.692C35.7589 73.692 35.0522 73.5904 34.3836 73.3873C33.7234 73.1757 33.131 72.8583 32.6063 72.4351C32.09 72.0035 31.6668 71.4703 31.3367 70.8355C31.0151 70.1923 30.812 69.439 30.7273 68.5757H32.9617C33.0633 69.2698 33.2664 69.8537 33.5711 70.3277C33.8758 70.8017 34.2736 71.1614 34.7645 71.4068C35.2638 71.6438 35.8436 71.7623 36.5037 71.7623C37.0623 71.7623 37.5574 71.6649 37.9891 71.4703C38.4207 71.2756 38.7846 70.9963 39.0809 70.6324C39.3771 70.2685 39.6014 69.8283 39.7537 69.3121C39.9145 68.7958 39.9949 68.216 39.9949 67.5728C39.9949 66.9888 39.9145 66.4472 39.7537 65.9478C39.5929 65.4485 39.3517 65.0126 39.0301 64.6402C38.7169 64.2678 38.3318 63.98 37.8748 63.7769C37.4178 63.5653 36.893 63.4595 36.3006 63.4595C35.5135 63.4595 34.9168 63.5653 34.5105 63.7769C34.1128 63.9885 33.7023 64.2763 33.2791 64.6402ZM47.3201 70.6451V72.5367C47.3201 73.3069 47.1255 74.1194 46.7361 74.9742C46.3468 75.8375 45.8009 76.5569 45.0984 77.1324L43.7654 76.2056C44.0363 75.8332 44.2648 75.4524 44.451 75.063C44.6372 74.6822 44.7768 74.2844 44.8699 73.8697C44.9715 73.4634 45.0223 73.0318 45.0223 72.5748V70.6451H47.3201ZM53.033 64.6402L51.1541 64.1578L52.0809 54.9537H61.5643V57.1246H54.074L53.5154 62.1519C53.854 61.9573 54.2814 61.7753 54.7977 61.606C55.3224 61.4367 55.9233 61.3521 56.6004 61.3521C57.4552 61.3521 58.2212 61.5002 58.8982 61.7964C59.5753 62.0842 60.1508 62.4989 60.6248 63.0406C61.1072 63.5823 61.4754 64.2339 61.7293 64.9957C61.9832 65.7574 62.1102 66.608 62.1102 67.5474C62.1102 68.4361 61.9874 69.2528 61.742 69.9976C61.505 70.7424 61.1453 71.3941 60.6629 71.9527C60.1805 72.5028 59.5711 72.9302 58.8348 73.2349C58.1069 73.5396 57.2479 73.692 56.2576 73.692C55.5128 73.692 54.8061 73.5904 54.1375 73.3873C53.4773 73.1757 52.8849 72.8583 52.3602 72.4351C51.8439 72.0035 51.4207 71.4703 51.0906 70.8355C50.769 70.1923 50.5659 69.439 50.4813 68.5757H52.7156C52.8172 69.2698 53.0203 69.8537 53.325 70.3277C53.6297 70.8017 54.0275 71.1614 54.5184 71.4068C55.0177 71.6438 55.5975 71.7623 56.2576 71.7623C56.8162 71.7623 57.3113 71.6649 57.743 71.4703C58.1746 71.2756 58.5385 70.9963 58.8348 70.6324C59.131 70.2685 59.3553 69.8283 59.5076 69.3121C59.6684 68.7958 59.7488 68.216 59.7488 67.5728C59.7488 66.9888 59.6684 66.4472 59.5076 65.9478C59.3468 65.4485 59.1056 65.0126 58.784 64.6402C58.4708 64.2678 58.0857 63.98 57.6287 63.7769C57.1717 63.5653 56.6469 63.4595 56.0545 63.4595C55.2674 63.4595 54.6707 63.5653 54.2645 63.7769C53.8667 63.9885 53.4562 64.2763 53.033 64.6402ZM72.9393 69.7945C72.9393 69.456 72.8631 69.1428 72.7107 68.855C72.5669 68.5588 72.2664 68.2922 71.8094 68.0552C71.3608 67.8098 70.6837 67.5982 69.7781 67.4205C69.0164 67.2597 68.3266 67.0692 67.7088 66.8492C67.0994 66.6291 66.5789 66.3625 66.1473 66.0494C65.7241 65.7362 65.3982 65.3681 65.1697 64.9449C64.9412 64.5217 64.827 64.0266 64.827 63.4595C64.827 62.9179 64.9454 62.4058 65.1824 61.9234C65.4279 61.441 65.7706 61.0136 66.2107 60.6412C66.6593 60.2688 67.1967 59.9768 67.823 59.7652C68.4493 59.5536 69.1476 59.4478 69.9178 59.4478C71.018 59.4478 71.9575 59.6425 72.7361 60.0318C73.5148 60.4211 74.1115 60.9416 74.5262 61.5933C74.9409 62.2366 75.1482 62.9517 75.1482 63.7388H72.7996C72.7996 63.358 72.6854 62.9898 72.4568 62.6343C72.2368 62.2704 71.9109 61.97 71.4793 61.733C71.0561 61.496 70.5356 61.3775 69.9178 61.3775C69.2661 61.3775 68.7371 61.4791 68.3309 61.6822C67.9331 61.8769 67.6411 62.1265 67.4549 62.4312C67.2771 62.7359 67.1883 63.0575 67.1883 63.3961C67.1883 63.65 67.2306 63.8785 67.3152 64.0816C67.4083 64.2763 67.5691 64.4582 67.7977 64.6275C68.0262 64.7883 68.3478 64.9407 68.7625 65.0845C69.1772 65.2284 69.7062 65.3723 70.3494 65.5162C71.4751 65.7701 72.4018 66.0748 73.1297 66.4302C73.8576 66.7857 74.3992 67.2216 74.7547 67.7379C75.1102 68.2541 75.2879 68.8804 75.2879 69.6168C75.2879 70.2177 75.1609 70.7678 74.907 71.2672C74.6616 71.7665 74.3019 72.1981 73.8279 72.5621C73.3624 72.9175 72.8038 73.1968 72.1521 73.4C71.5089 73.5946 70.7853 73.692 69.9813 73.692C68.771 73.692 67.7469 73.4761 66.909 73.0445C66.0711 72.6129 65.4363 72.0543 65.0047 71.3687C64.573 70.6832 64.3572 69.9595 64.3572 69.1978H66.7186C66.7524 69.841 66.9386 70.3531 67.2771 70.7339C67.6157 71.1063 68.0304 71.3729 68.5213 71.5338C69.0122 71.6861 69.4988 71.7623 69.9813 71.7623C70.6245 71.7623 71.1619 71.6776 71.5936 71.5084C72.0337 71.3391 72.368 71.1063 72.5965 70.8101C72.825 70.5139 72.9393 70.1754 72.9393 69.7945Z" fill="black"/>
</g>
</g>
</g>
</svg>
