<?xml version="1.0" encoding="UTF-8"?>
<svg viewBox="0 0 78.46241 97.815857" xmlns="http://www.w3.org/2000/svg" xmlns:xlink="http://www.w3.org/1999/xlink">

  <g transform="translate(-62.197 -339.88)">
    <g transform="matrix(.41873 0 0 .41873 1.204 280.4)">
      <g fill="#4d4d4d">
        <path d="m333.05 281.97a93.692 93.692 0 1 1 -187.38 0 93.692 93.692 0 1 1 187.38 0z" />
        <path
          d="m232.12 175.17h14.474a3.5355 3.5355 0 0 1 3.5355 3.5355v11.396a3.5355 3.5355 0 0 1 -3.5355 3.5355h-14.474a3.5355 3.5355 0 0 1 -3.5355 -3.5355v-11.396a3.5355 3.5355 0 0 1 3.5355 -3.5355" />
        <path
          d="m231.98 162.84h14.754a8.9357 8.9357 0 0 1 8.9357 8.9357 8.9357 8.9357 0 0 1 -8.9357 8.9357h-14.754a8.9357 8.9357 0 0 1 -8.9357 -8.9357 8.9357 8.9357 0 0 1 8.9357 -8.9357" />
      </g>
      <path
        d="m234.84 145.62h10.465a18.775 11.696 0 0 1 18.775 11.696v1.2311a18.775 11.696 0 0 1 -18.775 11.696h-10.465a18.775 11.696 0 0 1 -18.775 -11.696v-1.2311a18.775 11.696 0 0 1 18.775 -11.696"
        fill="none" stroke="#4d4d4d" stroke-linejoin="round" stroke-width="7.1328" />
      <path d="m317.49 281.97a78.135 78.135 0 1 1 -156.27 0 78.135 78.135 0 1 1 156.27 0z" fill="#ffffff" />
      <path id="a"
        d="m238.29 208.96h2.1213a3.5355 3.5355 0 0 1 3.5355 3.5355v11.314a3.5355 3.5355 0 0 1 -3.5355 3.5355h-2.1213a3.5355 3.5355 0 0 1 -3.5355 -3.5355v-11.314a3.5355 3.5355 0 0 1 3.5355 -3.5355"
        fill="#4d4d4d" />
      <use transform="translate(0 125.87)" width="744.09448" height="1052.3622" xlink:href="#a" />
      <use transform="matrix(0 -1 1 0 -42.436 521.32)" width="744.09448" height="1052.3622" xlink:href="#a" />
      <use transform="matrix(0 -1 1 0 81.308 521.32)" width="744.09448" height="1052.3622" xlink:href="#a" />
      <g fill="#808080">
        <use transform="matrix(.25365 .14645 -.21784 .37731 257.75 108.97)" width="744.09448" height="1052.3622"
          xlink:href="#a" />
        <use transform="matrix(.14645 .25365 -.37731 .21784 340.68 141.55)" width="744.09448" height="1052.3622"
          xlink:href="#a" />
        <use transform="matrix(.25365 -.14645 -.21784 -.37731 257.75 453.16)" width="744.09448" height="1052.3622"
          xlink:href="#a" />
        <use transform="matrix(.14645 -.25365 -.37731 -.21784 340.68 420.58)" width="744.09448" height="1052.3622"
          xlink:href="#a" />
        <use transform="matrix(-.25365 -.14645 .21784 -.37731 221.03 453.16)" width="744.09448" height="1052.3622"
          xlink:href="#a" />
        <use transform="matrix(-.14645 -.25365 .37731 -.21784 138.11 420.58)" width="744.09448" height="1052.3622"
          xlink:href="#a" />
        <use transform="matrix(-.25365 .14645 .21784 .37731 221.03 109.4)" width="744.09448" height="1052.3622"
          xlink:href="#a" />
        <use transform="matrix(-.14645 .25365 .37731 .21784 138.11 141.98)" width="744.09448" height="1052.3622"
          xlink:href="#a" />
      </g>

      <path d="m294.16 196.88-3.182 12.607 12.374 9.5459 11.942-6.9801c0-6.1872-15.831-16.94-21.135-15.172z"
        fill="#4d4d4d" fill-rule="evenodd" />
    </g>
  </g>
</svg>